<svg xmlns="http://www.w3.org/2000/svg"><defs><symbol id="search"><circle cx="11" cy="11" r="8"/><path d="m21 21-4.3-4.3"/></symbol><symbol id="settings2"><path d="M20 7h-9"/><path d="M14 17H5"/><circle cx="17" cy="17" r="3"/><circle cx="7" cy="7" r="3"/></symbol><symbol id="pen-tool"><path d="m12 19 7-7 3 3-7 7-3-3z"/><path d="m18 13-1.5-7.5L2 2l3.5 14.5L13 18l5-5z"/><path d="m2 2 7.586 7.586"/><circle cx="11" cy="11" r="2"/></symbol><symbol id="file-code2"><path d="M4 22h14a2 2 0 0 0 2-2V7.5L14.5 2H6a2 2 0 0 0-2 2v4"/><polyline points="14 2 14 8 20 8"/><path d="m9 18 3-3-3-3"/><path d="m5 12-3 3 3 3"/></symbol></defs></svg>